<svg xmlns="http://www.w3.org/2000/svg" xmlns:xlink="http://www.w3.org/1999/xlink" version="1.1" width="1080" height="1080" viewBox="0 0 1080 1080">
<defs>
<clipPath id="clip_0">
<path transform="matrix(1,0,0,-1,0,1080)" d="M0 1080H1080V0H0Z"/>
</clipPath>
</defs>
<g id="layer_1" data-name="Camada 1">
<g clip-path="url(#clip_0)">
<path transform="matrix(1,0,0,-1,562.8823,469.8036)" d="M0 0C0-.21 0-.428 .007-.638V.526C0 .352 0 .176 0 0M.007 .835V.646C.007 .709 .007 .772 .014 .835Z" fill="#ffffff"/>
<path transform="matrix(1,0,0,-1,562.8891,469.27729)" d="M0 0V-1.164C-.007-.954-.007-.736-.007-.526-.007-.351-.007-.175 0 0" fill="#ffffff"/>
<path transform="matrix(1,0,0,-1,562.8959,468.9687)" d="M0 0C-.007-.062-.007-.126-.007-.189V0Z" fill="#ffffff"/>
<path transform="matrix(1,0,0,-1,562.8891,469.27729)" d="M0 0V-1.164C-.007-.954-.007-.736-.007-.526-.007-.351-.007-.175 0 0" fill="#ffffff"/>
<path transform="matrix(1,0,0,-1,562.8959,468.9687)" d="M0 0C-.007-.062-.007-.126-.007-.189V0Z" fill="#ffffff"/>
<path transform="matrix(1,0,0,-1,562.8959,468.9687)" d="M0 0C-.007-.062-.007-.126-.007-.189V0Z" fill="#ffffff"/>
<path transform="matrix(1,0,0,-1,562.8891,469.27729)" d="M0 0V-1.164C-.007-.954-.007-.736-.007-.526-.007-.351-.007-.175 0 0" fill="#ffffff"/>
<path transform="matrix(1,0,0,-1,562.8959,468.9687)" d="M0 0C-.007-.062-.007-.126-.007-.189V0Z" fill="#ffffff"/>
<path transform="matrix(1,0,0,-1,494.727,394.6454)" d="M0 0C.273-.414 .54-.835 .8-1.249H.807C.54-.828 .273-.414 0 0M0 0C.273-.414 .54-.835 .8-1.249H.807C.54-.828 .273-.414 0 0M0 0C.273-.414 .54-.835 .8-1.249H.807C.54-.828 .273-.414 0 0" fill="#ffffff"/>
<path transform="matrix(1,0,0,-1,562.8959,468.9687)" d="M0 0C-.007-.062-.007-.126-.007-.189V0Z" fill="#ffffff"/>
<path transform="matrix(1,0,0,-1,562.8891,469.27729)" d="M0 0V-1.164C-.007-.954-.007-.736-.007-.526-.007-.351-.007-.175 0 0" fill="#ffffff"/>
<path transform="matrix(1,0,0,-1,562.8959,468.9687)" d="M0 0C-.007-.062-.007-.126-.007-.189V0Z" fill="#ffffff"/>
<path transform="matrix(1,0,0,-1,562.8891,469.27729)" d="M0 0V-1.164C-.007-.954-.007-.736-.007-.526-.007-.351-.007-.175 0 0" fill="#ffffff"/>
<path transform="matrix(1,0,0,-1,562.8959,468.9687)" d="M0 0C-.007-.062-.007-.126-.007-.189V0Z" fill="#ffffff"/>
<path transform="matrix(1,0,0,-1,562.8959,468.9687)" d="M0 0C-.007-.062-.007-.126-.007-.189V0Z" fill="#ffffff"/>
<path transform="matrix(1,0,0,-1,686.5336,394.60353)" d="M0 0C-14.638-22.362-22.37-48.367-22.37-75.2-22.37-83.662-21.599-92.124-20.068-100.355L-18.974-105.674C-18.062-110.789-17.599-116.038-17.599-121.287-17.599-142.639-25.311-163.255-39.315-179.337-53.034-195.09-71.755-205.355-92.068-208.604V-74.674C-92.055-71.902-91.936-69.13-91.711-66.365-91.654-65.671-91.592-64.977-91.521-64.281-91.444-63.537-91.353-62.801-91.262-62.064-91.121-60.893-90.953-59.741-90.771-58.577-90.742-58.408-90.722-58.232-90.693-58.064-88.834-46.578-85.101-35.555-79.6-25.281-72.863-12.7-63.798-1.761-52.647 7.241-33.646 22.573-10.673 30.685 13.809 30.685 18.089 30.685 22.327 30.433 26.51 29.935 16.328 21.353 7.396 11.29 0 0M-93.5 10.743C-93.753 10.427-94.005 10.111-94.251 9.796-94.96 8.897-95.654 7.992-96.342 7.073-98.349 4.386-100.258 1.621-102.067-1.214L-108.13-1.319C-119.729-1.521-131.074-3.357-141.988-6.789-145.013-7.74-148.271-7.741-151.297-6.796-162.139-3.409-173.404-1.599-184.923-1.396L-191-1.291H-191.007C-191.267-.877-191.533-.456-191.807-.042-193.378 2.357-195.021 4.708-196.732 7.003-197.021 7.396-197.322 7.789-197.616 8.175-199.062 10.063-200.55 11.908-202.079 13.711-202.451 14.153-202.823 14.581-203.202 15.017-203.44 15.282-203.672 15.557-203.91 15.823-204.178 16.125-204.451 16.427-204.725 16.729-204.978 17.016-205.237 17.297-205.496 17.577-205.812 17.929-206.135 18.272-206.465 18.615-207.068 19.269-207.686 19.914-208.304 20.553-199.946 28.404-190.157 34.614-179.436 38.817-168.967 42.915-157.894 44.999-146.526 44.999-135.159 44.999-124.087 42.915-113.617 38.811-102.917 34.621-93.149 28.426-84.799 20.595V20.575C-85.341 20.04-85.869 19.485-86.385 18.932-87.459 17.795-88.511 16.637-89.528 15.473-89.83 15.129-90.132 14.784-90.434 14.434-91.479 13.22-92.504 11.992-93.5 10.743M-123.645-74.555V-335.792H-169.408V-34.705C-163.711-35.856-158.146-37.575-152.758-39.849-148.828-41.504-144.396-41.5-140.469-39.837L-140.464-39.835C-135.019-37.533-129.398-35.793-123.645-34.628V-74.365H-123.638C-123.645-74.428-123.645-74.491-123.645-74.555M-272.718-98.867C-271.378-91.121-270.697-83.192-270.697-75.27-270.697-48.438-278.43-22.439-293.067-.077-300.463 11.213-309.396 21.275-319.577 29.864-315.395 30.362-311.156 30.607-306.876 30.607-282.408 30.607-259.442 22.511-240.447 7.192-229.284-1.817-220.211-12.771-213.468-25.359-207.987-35.597-204.255-46.585-202.388-58.029L-200.984-66.625V-208.682C-221.312-205.433-240.026-195.167-253.759-179.414-267.757-163.332-275.476-142.723-275.476-121.371-275.476-116.115-275.013-110.859-274.101-105.751L-273.673-103.681M71.024 49.813C53.02 58.072 33.765 62.261 13.809 62.261-12.427 62.261-38.193 54.676-60.163 40.663-72.057 52.634-86.329 62.036-102.096 68.211-116.256 73.762-131.202 76.575-146.526 76.575-161.858 76.575-176.805 73.762-190.957 68.219-206.738 62.029-221.032 52.612-232.946 40.613-254.909 54.605-280.661 62.184-306.876 62.184-326.839 62.184-346.087 57.994-364.092 49.735L-383.701 40.747C-388.287 38.645-388.287 32.128-383.701 30.026L-364.092 21.037C-326.538 3.824-302.273-33.976-302.273-75.27-302.273-81.711-302.855-88.153-303.999-94.426L-305.402-101.197V-101.457C-306.497-107.997-307.052-114.684-307.052-121.371-307.052-150.344-296.575-178.319-277.566-200.156-257.828-222.807-230.477-237.107-200.984-240.553V-326.952C-200.984-331.835-204.942-335.792-209.824-335.792H-252.587V-367.368H-40.474V-335.792H-83.229C-88.111-335.792-92.068-331.835-92.068-326.952V-240.468C-62.584-237.023-35.239-222.729-15.508-200.072 3.508-178.242 13.978-150.267 13.978-121.287 13.978-114.102 13.339-106.895 12.068-99.871L11.991-99.479 10.946-94.439C9.788-88.153 9.206-81.677 9.206-75.2 9.206-33.898 33.47 3.901 71.024 21.113L90.633 30.098C95.219 32.199 95.221 38.716 90.635 40.818Z" fill="#ffffff"/>
</g>
</g>
</svg>
