<svg xmlns="http://www.w3.org/2000/svg" xmlns:xlink="http://www.w3.org/1999/xlink" version="1.1" width="1080" height="1080" viewBox="0 0 1080 1080">
<defs>
<clipPath id="clip_0">
<path transform="matrix(1,0,0,-1,0,1080)" d="M0 1080H1080V0H0Z"/>
</clipPath>
</defs>
<g id="layer_1" data-name="Camada 1">
<g clip-path="url(#clip_0)">
<path transform="matrix(1,0,0,-1,519.185,661.47988)" d="M0 0C-1.154 0-2.22-.19-3.195-.571-4.172-.953-5.009-1.507-5.707-2.234-6.406-2.962-6.952-3.86-7.345-4.928-7.737-5.996-7.934-7.217-7.934-8.591-7.934-9.954-7.754-11.152-7.396-12.186-7.038-13.219-6.524-14.083-5.854-14.775-5.185-15.468-4.368-15.991-3.403-16.343-2.439-16.695-1.345-16.871-.121-16.871 .757-16.871 1.651-16.802 2.563-16.664 3.476-16.525 4.331-16.323 5.128-16.057V-19.712C4.319-19.943 3.447-20.125 2.512-20.258 1.576-20.391 .606-20.457-.398-20.457-2.361-20.457-4.088-20.177-5.577-19.617-7.067-19.057-8.312-18.266-9.311-17.244-10.31-16.222-11.06-14.998-11.563-13.571-12.064-12.146-12.315-10.572-12.315-8.851-12.315-7.084-12.047-5.445-11.51-3.932-10.974-2.419-10.199-1.108-9.189 0-8.179 1.109-6.914 1.98-5.396 2.616-3.877 3.251-2.159 3.574-.242 3.586 .739 3.586 1.669 3.52 2.547 3.387 3.424 3.254 4.215 3.066 4.92 2.824V-.779C3.996-.491 3.136-.289 2.339-.173 1.542-.058 .763 0 0 0" fill="#fff"/>
<path transform="matrix(1,0,0,-1,545.3842,673.1201)" d="M0 0C0 .889-.104 1.674-.312 2.356-.52 3.037-.809 3.609-1.178 4.071-1.548 4.532-1.992 4.879-2.512 5.11-3.031 5.341-3.598 5.457-4.209 5.457-4.81 5.457-5.367 5.341-5.881 5.11-6.395 4.879-6.837 4.532-7.206 4.071-7.576 3.609-7.864 3.037-8.072 2.356-8.28 1.674-8.384 .889-8.384 0-8.384-.889-8.28-1.674-8.072-2.356-7.864-3.037-7.573-3.606-7.197-4.062-6.822-4.518-6.378-4.865-5.863-5.101-5.35-5.338-4.787-5.457-4.175-5.457-3.563-5.457-3.003-5.338-2.494-5.101-1.986-4.865-1.548-4.518-1.178-4.062-.809-3.606-.52-3.037-.312-2.356-.104-1.674 0-.889 0 0M4.244 0C4.244-1.316 4.047-2.518 3.654-3.603 3.262-4.688 2.699-5.618 1.966-6.392 1.232-7.166 .347-7.763-.693-8.185-1.732-8.606-2.893-8.817-4.175-8.817-5.491-8.817-6.672-8.606-7.717-8.185-8.763-7.763-9.648-7.166-10.376-6.392-11.104-5.618-11.661-4.688-12.048-3.603-12.435-2.518-12.628-1.316-12.628 0-12.628 1.316-12.432 2.518-12.039 3.603-11.646 4.688-11.084 5.618-10.35 6.392-9.617 7.166-8.73 7.763-7.691 8.185-6.651 8.606-5.491 8.817-4.209 8.817-2.893 8.817-1.712 8.606-.667 8.185 .378 7.763 1.265 7.166 1.992 6.392 2.72 5.618 3.276 4.688 3.663 3.603 4.05 2.518 4.244 1.316 4.244 0" fill="#fff"/>
<path transform="matrix(1,0,0,-1,562.5405,667.0576)" d="M0 0H.069C.312 .347 .617 .687 .987 1.022 1.356 1.357 1.778 1.651 2.252 1.906 2.725 2.16 3.248 2.365 3.819 2.521 4.391 2.676 5 2.754 5.646 2.754 6.259 2.754 6.851 2.685 7.422 2.546 7.994 2.408 8.517 2.191 8.99 1.897 9.463 1.603 9.882 1.221 10.246 .754 10.609 .286 10.896-.271 11.104-.918 11.219-1.276 11.296-1.666 11.337-2.087 11.377-2.509 11.397-2.997 11.397-3.551V-14.446H7.292V-4.192C7.292-3.741 7.275-3.354 7.24-3.031 7.206-2.708 7.142-2.425 7.05-2.182 6.842-1.651 6.527-1.27 6.105-1.039 5.684-.808 5.173-.693 4.572-.693 3.776-.693 3.011-.88 2.277-1.256 1.544-1.631 .895-2.177 .329-2.893V-14.446H-3.776V2.339H-.382Z" fill="#fff"/>
<path transform="matrix(1,0,0,-1,598.9409,664.7187)" d="M0 0-6.496-16.785H-10.566L-17.08 0H-12.749L-10.411-6.409C-9.741-8.211-9.129-10.012-8.574-11.814H-8.505C-8.021-10.255-7.42-8.488-6.704-6.513L-4.365 0Z" fill="#fff"/>
<path transform="matrix(1,0,0,-1,0,1080)" d="M606.968 415.281H611.073V398.496H606.968ZM606.865 423.578H611.178V419.126H606.865Z" fill="#fff"/>
<path transform="matrix(1,0,0,-1,636.1811,664.7187)" d="M0 0-6.496-16.785H-10.566L-17.08 0H-12.749L-10.411-6.409C-9.741-8.211-9.129-10.012-8.574-11.814H-8.505C-8.021-10.255-7.42-8.488-6.704-6.513L-4.365 0Z" fill="#fff"/>
<path transform="matrix(1,0,0,-1,651.103,667.5078)" d="M0 0C-.52 0-.981-.095-1.386-.286-1.79-.477-2.14-.736-2.434-1.065-2.729-1.395-2.962-1.778-3.136-2.217-3.309-2.656-3.424-3.124-3.481-3.62H3.118C3.118-3.124 3.052-2.656 2.919-2.217 2.786-1.778 2.59-1.395 2.33-1.065 2.07-.736 1.746-.477 1.359-.286 .973-.095 .52 0 0 0M1.646-11.121C2.442-11.121 3.273-11.04 4.14-10.878 5.006-10.717 5.884-10.486 6.772-10.185V-13.459C6.241-13.69 5.428-13.91 4.33-14.117 3.233-14.325 2.096-14.429 .918-14.429-.271-14.429-1.4-14.276-2.469-13.97-3.537-13.664-4.469-13.17-5.266-12.489-6.062-11.808-6.695-10.924-7.163-9.839-7.631-8.753-7.864-7.437-7.864-5.89-7.864-4.365-7.645-3.031-7.206-1.888-6.768-.745-6.179 .202-5.439 .953-4.7 1.703-3.854 2.266-2.901 2.642-1.949 3.017-.965 3.205 .052 3.205 1.114 3.205 2.093 3.043 2.988 2.72 3.883 2.396 4.656 1.888 5.31 1.195 5.961 .502 6.47-.39 6.833-1.481 7.197-2.572 7.379-3.863 7.379-5.353 7.367-5.93 7.351-6.421 7.327-6.825H-3.672C-3.614-7.599-3.441-8.26-3.152-8.808-2.864-9.357-2.485-9.801-2.019-10.142-1.551-10.483-1.005-10.731-.381-10.887 .242-11.042 .918-11.121 1.646-11.121" fill="#fff"/>
<path transform="matrix(1,0,0,-1,677.769,667.9756)" d="M0 0H-.347C-1.605 0-2.711-.187-3.664-.563-4.616-.938-5.353-1.513-5.872-2.287V-13.528H-9.978V3.257H-6.583L-6.201 .918H-6.132C-5.647 1.772-4.98 2.445-4.132 2.936-3.282 3.427-2.264 3.672-1.074 3.672-.658 3.672-.301 3.649 0 3.603Z" fill="#fff"/>
<path transform="matrix(1,0,0,-1,0,1080)" d="M684.394 403.121H689.053V398.496H684.394Z" fill="#fff"/>
<path transform="matrix(1,0,0,-1,704.4252,668.87588)" d="M0 0C.242-.035 .551-.061 .927-.078 1.302-.096 1.691-.104 2.096-.104 3.239-.104 4.197-.012 4.971 .173 5.745 .357 6.368 .615 6.842 .944 7.315 1.273 7.656 1.671 7.864 2.139 8.072 2.607 8.176 3.118 8.176 3.672 8.176 4.353 8.02 4.942 7.708 5.439 7.396 5.935 6.854 6.322 6.08 6.6 5.676 6.738 5.176 6.839 4.581 6.902 3.986 6.966 3.256 6.998 2.391 6.998H0ZM2.165-3.655C1.784-3.655 1.408-3.649 1.039-3.638 .669-3.626 .323-3.603 0-3.568V-12.628H-4.244V10.549H2.442C3.563 10.549 4.541 10.5 5.378 10.401 6.216 10.303 6.963 10.156 7.621 9.96 9.203 9.475 10.422 8.701 11.276 7.639 12.131 6.576 12.559 5.225 12.559 3.585 12.559 2.465 12.327 1.458 11.865 .562 11.403-.333 10.728-1.091 9.839-1.715 8.949-2.339 7.864-2.818 6.582-3.153 5.3-3.488 3.828-3.655 2.165-3.655" fill="#fff"/>
<path transform="matrix(1,0,0,-1,733.8969,676.6362)" d="M0 0C0 .357-.101 .652-.303 .883-.505 1.114-.773 1.308-1.108 1.463-1.443 1.62-1.827 1.755-2.26 1.871-2.693 1.986-3.146 2.102-3.62 2.217-4.221 2.378-4.798 2.566-5.353 2.78-5.906 2.994-6.395 3.273-6.815 3.62-7.237 3.966-7.572 4.402-7.82 4.928-8.069 5.453-8.193 6.097-8.193 6.859-8.193 7.794-8.025 8.606-7.69 9.293-7.355 9.98-6.902 10.549-6.331 10.999-5.759 11.45-5.096 11.784-4.339 12.004-3.583 12.223-2.783 12.333-1.939 12.333-.912 12.333 .053 12.249 .953 12.082 1.854 11.914 2.668 11.698 3.396 11.432V8.089C3.015 8.216 2.613 8.334 2.191 8.444 1.77 8.554 1.343 8.649 .91 8.73 .477 8.811 .046 8.877-.381 8.929-.808 8.981-1.212 9.007-1.594 9.007-2.078 9.007-2.488 8.961-2.823 8.869-3.158 8.776-3.43 8.652-3.638 8.496-3.845 8.34-3.995 8.161-4.088 7.959-4.181 7.757-4.227 7.546-4.227 7.327-4.227 6.946-4.125 6.634-3.923 6.392-3.721 6.149-3.441 5.953-3.083 5.803-2.726 5.652-2.35 5.528-1.957 5.43-1.564 5.332-1.184 5.237-.813 5.145-.236 5.006 .341 4.838 .918 4.642 1.496 4.446 2.016 4.171 2.478 3.819 2.939 3.467 3.317 3.011 3.612 2.451 3.906 1.891 4.054 1.178 4.054 .312 4.054-.635 3.874-1.461 3.517-2.166 3.158-2.87 2.659-3.456 2.019-3.924 1.377-4.391 .609-4.738-.285-4.963-1.181-5.188-2.165-5.301-3.239-5.301-4.302-5.301-5.257-5.217-6.105-5.049-6.954-4.882-7.656-4.671-8.21-4.417V-1.109C-7.31-1.444-6.479-1.672-5.716-1.793-4.954-1.914-4.243-1.975-3.585-1.975-3.077-1.975-2.604-1.937-2.165-1.862-1.727-1.787-1.348-1.669-1.03-1.507-.713-1.346-.462-1.141-.276-.892-.092-.644 0-.347 0 0" fill="#fff"/>
<path transform="matrix(1,0,0,-1,0,1080)" d="M747.104 415.281H751.209V398.496H747.104ZM747 423.578H751.313V419.126H747Z" fill="#fff"/>
<path transform="matrix(1,0,0,-1,301.8129,512.688)" d="M0 0C0-.111 0-.226 .004-.337V.278C0 .186 0 .093 0 0M.004 .441V.341C.004 .375 .004 .408 .007 .441Z" fill="#fff"/>
<path transform="matrix(1,0,0,-1,301.8168,512.4097)" d="M0 0V-.616C-.004-.504-.004-.39-.004-.278-.004-.186-.004-.093 0 0" fill="#fff"/>
<path transform="matrix(1,0,0,-1,301.8198,512.2466)" d="M0 0C-.003-.033-.003-.067-.003-.1V0Z" fill="#fff"/>
<path transform="matrix(1,0,0,-1,301.8168,512.4097)" d="M0 0V-.616C-.004-.504-.004-.39-.004-.278-.004-.186-.004-.093 0 0" fill="#fff"/>
<path transform="matrix(1,0,0,-1,301.8198,512.2466)" d="M0 0C-.003-.033-.003-.067-.003-.1V0Z" fill="#fff"/>
<path transform="matrix(1,0,0,-1,301.8198,512.2466)" d="M0 0C-.003-.033-.003-.067-.003-.1V0Z" fill="#fff"/>
<path transform="matrix(1,0,0,-1,301.8168,512.4097)" d="M0 0V-.616C-.004-.504-.004-.39-.004-.278-.004-.186-.004-.093 0 0" fill="#fff"/>
<path transform="matrix(1,0,0,-1,301.8198,512.2466)" d="M0 0C-.003-.033-.003-.067-.003-.1V0Z" fill="#fff"/>
<path transform="matrix(1,0,0,-1,265.7993,472.97413)" d="M0 0C.145-.218 .285-.441 .423-.66H.426C.285-.437 .145-.218 0 0M0 0C.145-.218 .285-.441 .423-.66H.426C.285-.437 .145-.218 0 0M0 0C.145-.218 .285-.441 .423-.66H.426C.285-.437 .145-.218 0 0" fill="#fff"/>
<path transform="matrix(1,0,0,-1,301.8198,512.2466)" d="M0 0C-.003-.033-.003-.067-.003-.1V0Z" fill="#fff"/>
<path transform="matrix(1,0,0,-1,301.8168,512.4097)" d="M0 0V-.616C-.004-.504-.004-.39-.004-.278-.004-.186-.004-.093 0 0" fill="#fff"/>
<path transform="matrix(1,0,0,-1,301.8198,512.2466)" d="M0 0C-.003-.033-.003-.067-.003-.1V0Z" fill="#fff"/>
<path transform="matrix(1,0,0,-1,301.8168,512.4097)" d="M0 0V-.616C-.004-.504-.004-.39-.004-.278-.004-.186-.004-.093 0 0" fill="#fff"/>
<path transform="matrix(1,0,0,-1,301.8198,512.2466)" d="M0 0C-.003-.033-.003-.067-.003-.1V0Z" fill="#fff"/>
<path transform="matrix(1,0,0,-1,301.8198,512.2466)" d="M0 0C-.003-.033-.003-.067-.003-.1V0Z" fill="#fff"/>
<path transform="matrix(1,0,0,-1,367.1508,472.95173)" d="M0 0C-7.734-11.817-11.82-25.558-11.82-39.736-11.82-44.208-11.412-48.679-10.604-53.029L-10.025-55.839C-9.544-58.542-9.299-61.315-9.299-64.089-9.299-75.372-13.374-86.265-20.774-94.763-28.023-103.087-37.915-108.512-48.649-110.228V-39.458C-48.642-37.994-48.579-36.529-48.46-35.068-48.431-34.701-48.397-34.334-48.36-33.967-48.319-33.574-48.271-33.185-48.223-32.795-48.148-32.176-48.06-31.568-47.964-30.953-47.948-30.863-47.938-30.771-47.923-30.682-46.94-24.612-44.968-18.787-42.061-13.359-38.501-6.711-33.711-.931-27.819 3.826-17.778 11.928-5.64 16.214 7.297 16.214 9.559 16.214 11.799 16.081 14.009 15.817 8.628 11.283 3.908 5.966 0 0M-49.406 5.677C-49.539 5.51-49.673 5.343-49.803 5.176-50.177 4.702-50.544 4.223-50.907 3.737-51.968 2.317-52.977 .856-53.933-.642L-57.137-.697C-63.265-.804-69.26-1.774-75.027-3.587-76.626-4.09-78.347-4.09-79.946-3.591-85.675-1.801-91.628-.845-97.715-.738L-100.926-.682H-100.929C-101.066-.463-101.207-.241-101.352-.022-102.183 1.246-103.05 2.488-103.955 3.7-104.106 3.908-104.266 4.116-104.422 4.319-105.186 5.317-105.972 6.292-106.78 7.245-106.977 7.479-107.173 7.705-107.373 7.935-107.499 8.076-107.622 8.22-107.748 8.361-107.889 8.521-108.033 8.68-108.178 8.839-108.312 8.991-108.448 9.14-108.586 9.288-108.753 9.474-108.923 9.655-109.098 9.837-109.416 10.182-109.742 10.522-110.068 10.86-105.652 15.009-100.48 18.291-94.815 20.511-89.283 22.677-83.432 23.778-77.426 23.778-71.419 23.778-65.568 22.677-60.036 20.508-54.382 18.294-49.221 15.021-44.809 10.882-44.808 10.878-44.808 10.876-44.808 10.872-45.095 10.589-45.374 10.296-45.646 10.003-46.213 9.403-46.77 8.791-47.308 8.176-47.467 7.994-47.626 7.812-47.785 7.627-48.338 6.985-48.879 6.336-49.406 5.677M-65.334-39.395V-177.436H-89.517V-18.338C-86.506-18.947-83.565-19.855-80.718-21.057-78.642-21.931-76.3-21.929-74.225-21.05L-74.222-21.049C-71.345-19.833-68.375-18.913-65.334-18.298V-39.295H-65.331C-65.334-39.328-65.334-39.362-65.334-39.395M-144.106-52.243C-143.398-48.149-143.038-43.959-143.038-39.773-143.038-25.595-147.124-11.857-154.858-.041-158.767 5.925-163.486 11.242-168.867 15.78-166.657 16.043-164.417 16.173-162.155 16.173-149.227 16.173-137.091 11.895-127.054 3.8-121.155-.96-116.361-6.748-112.798-13.4-109.902-18.81-107.93-24.616-106.943-30.663L-106.201-35.205V-110.269C-116.943-108.553-126.832-103.128-134.088-94.804-141.484-86.306-145.563-75.416-145.563-64.133-145.563-61.356-145.318-58.579-144.837-55.88L-144.61-54.786M37.53 26.322C28.017 30.686 17.842 32.899 7.297 32.899-6.566 32.899-20.181 28.891-31.79 21.487-38.075 27.812-45.616 32.781-53.948 36.043-61.43 38.976-69.328 40.463-77.426 40.463-85.527 40.463-93.425 38.976-100.903 36.047-109.242 32.777-116.795 27.801-123.091 21.46-134.696 28.854-148.304 32.858-162.155 32.858-172.704 32.858-182.875 30.645-192.389 26.281L-202.751 21.531C-205.174 20.42-205.174 16.977-202.751 15.866L-192.389 11.116C-172.545 2.021-159.724-17.953-159.724-39.773-159.724-43.177-160.031-46.581-160.636-49.896L-161.377-53.474V-53.611C-161.955-57.066-162.248-60.6-162.248-64.133-162.248-79.443-156.713-94.226-146.668-105.764-136.238-117.733-121.785-125.29-106.201-127.11V-172.765C-106.201-175.344-108.293-177.436-110.873-177.436H-133.469V-194.121H-21.386V-177.436H-43.979C-46.559-177.436-48.649-175.344-48.649-172.765V-127.065C-33.069-125.245-18.62-117.692-8.193-105.72 1.854-94.185 7.386-79.402 7.386-64.089 7.386-60.292 7.049-56.484 6.378-52.773L6.337-52.565 5.784-49.903C5.173-46.581 4.865-43.159 4.865-39.736 4.865-17.912 17.687 2.062 37.53 11.157L47.892 15.904C50.315 17.015 50.315 20.458 47.893 21.569Z" fill="#fff"/>
<path transform="matrix(1,0,0,-1,555.5375,420.1621)" d="M0 0C-.37 .654-.96 1.159-1.771 1.507-2.545 1.855-3.291 2.004-4.009 1.948-4.727 1.884-5.402 1.699-6.042 1.393-6.682 1.081-7.271 .668-7.819 .142-8.359-.384-8.843-.931-9.27-1.514-9.348-1.592-9.688-2.068-10.285-2.936-10.89-3.81-11.622-4.883-12.496-6.163-13.37-7.442-14.315-8.835-15.347-10.35-16.37-11.863-17.351-13.306-18.282-14.678-19.206-16.057-20.03-17.266-20.749-18.311-21.467-19.362-21.942-20.059-22.178-20.407-22.405-20.791-22.426-21.104-22.234-21.338-22.042-21.566-21.729-21.587-21.303-21.396-19.754-20.699-17.969-19.796-15.958-18.694-13.939-17.585-11.956-16.363-9.994-15.026-8.039-13.69-6.227-12.297-4.563-10.847-2.893-9.39-1.635-7.989-.782-6.632-.398-6.013-.064-5.295 .206-4.478 .477-3.668 .604-2.879 .583-2.125 .562-1.372 .369-.661 0 0M12.993-85.126C12.488-85.069 12.119-85.354 11.885-85.972 11.735-86.32 11.451-86.889 11.046-87.685 10.641-88.481 10.079-89.363 9.361-90.33 8.644-91.303 7.77-92.32 6.745-93.386 5.715-94.452 4.514-95.405 3.142-96.257 1.763-97.11 .213-97.821-1.507-98.383-3.234-98.944-5.146-99.222-7.236-99.222-11.65-99.222-15.063-98.511-17.465-97.075-19.867-95.639-21.068-93.549-21.068-90.798V-64.868C-21.068-64.641-20.983-64.435-20.806-64.264-20.635-64.086-20.429-64.001-20.201-64.001H-12.759C-11.011-64.001-9.589-64.35-8.487-65.046-7.378-65.743-6.511-66.56-5.871-67.484-5.231-68.415-4.776-69.339-4.507-70.249-4.236-71.159-4.059-71.849-3.98-72.311-3.945-72.623-3.817-72.843-3.604-72.979-3.391-73.114-3.178-73.178-2.964-73.156-2.751-73.135-2.559-73.036-2.381-72.865-2.211-72.687-2.118-72.445-2.118-72.14V-52.372C-2.118-52.066-2.211-51.825-2.381-51.647-2.559-51.477-2.751-51.377-2.964-51.356-3.178-51.342-3.391-51.398-3.604-51.534-3.817-51.668-3.945-51.889-3.98-52.202-4.059-52.664-4.236-53.353-4.507-54.263-4.776-55.173-5.231-56.097-5.871-57.028-6.511-57.952-7.378-58.77-8.487-59.466-9.589-60.163-11.011-60.511-12.759-60.511H-20.201C-20.429-60.511-20.635-60.426-20.806-60.248-20.983-60.078-21.068-59.871-21.068-59.644V-35.981C-21.068-34.474-20.77-33.181-20.166-32.114-19.568-31.055-18.737-30.181-17.671-29.505-16.604-28.823-15.318-28.333-13.804-28.02-12.29-27.707-10.627-27.558-8.807-27.558-6.213-27.558-3.98-27.992-2.118-28.866-.263-29.733 1.286-30.742 2.53-31.887 3.768-33.031 4.741-34.154 5.437-35.256 6.134-36.358 6.596-37.168 6.831-37.666 7.144-38.213 7.527-38.455 7.996-38.398 8.459-38.334 8.693-38.021 8.693-37.438V-25.347C8.693-24.608 8.281-24.239 7.471-24.239H-49.202C-49.593-24.239-49.885-24.331-50.076-24.501-50.269-24.679-50.375-24.871-50.396-25.084-50.418-25.298-50.34-25.511-50.162-25.724-49.984-25.937-49.729-26.065-49.38-26.101-48.911-26.179-48.179-26.357-47.169-26.627-46.16-26.897-45.144-27.352-44.12-27.992-43.089-28.631-42.187-29.52-41.412-30.664-40.637-31.809-40.253-33.273-40.253-35.05V-91.9C-40.253-93.72-40.637-95.191-41.412-96.321-42.187-97.444-43.089-98.333-44.12-98.994-45.144-99.648-46.16-100.103-47.169-100.359-48.179-100.608-48.911-100.771-49.38-100.849-49.729-100.928-49.984-101.063-50.162-101.262-50.34-101.454-50.418-101.66-50.396-101.866-50.375-102.079-50.269-102.278-50.076-102.449-49.885-102.626-49.593-102.711-49.202-102.711H12.524C13.342-102.711 13.747-102.342 13.747-101.61V-86.143C13.747-85.524 13.498-85.183 12.993-85.126" fill="#fff"/>
<path transform="matrix(1,0,0,-1,616.5678,521.5659)" d="M0 0C-.136 .178-.355 .298-.669 .377-.975 .419-1.55 .555-2.382 .782-3.213 1.017-4.066 1.415-4.94 1.976-5.814 2.538-6.59 3.305-7.265 4.272-7.94 5.239-8.281 6.518-8.281 8.11V85.013C-8.281 85.553-8.466 85.844-8.836 85.88-9.205 85.922-9.561 85.823-9.909 85.588-11.225 84.7-12.717 83.818-14.387 82.944-16.051 82.077-17.777 81.259-19.555 80.506-21.339 79.746-23.116 79.07-24.879 78.473-26.642 77.869-28.276 77.393-29.79 77.044-30.366 76.888-30.65 76.611-30.629 76.206-30.615 75.793-30.352 75.538-29.848 75.417-29.727 75.381-29.414 75.303-28.888 75.189-28.361 75.068-27.793 74.934-27.175 74.777-26.557 74.621-26.002 74.485-25.519 74.372-25.035 74.258-24.751 74.194-24.673 74.194-24.211 74.081-23.976 73.768-23.976 73.27V8.11C-23.976 6.518-24.317 5.239-24.992 4.272-25.668 3.305-26.442 2.538-27.316 1.976-28.191 1.415-29.044 1.017-29.876 .782-30.707 .555-31.283 .419-31.589 .377-31.901 .298-32.122 .178-32.257 0-32.392-.178-32.441-.355-32.406-.554-32.363-.746-32.257-.924-32.086-1.073-31.908-1.229-31.667-1.308-31.354-1.308H-.896C-.591-1.308-.349-1.229-.171-1.073 0-.924 .106-.746 .148-.554 .185-.355 .135-.178 0 0" fill="#fff"/>
<path transform="matrix(1,0,0,-1,656.2944,448.2959)" d="M0 0C-.462 1.123-1.109 2.097-1.947 2.936-2.779 3.767-3.768 4.421-4.912 4.912-6.057 5.395-7.321 5.637-8.715 5.637-10.072 5.637-11.352 5.381-12.553 4.883-13.754 4.378-14.792 3.696-15.659 2.843-16.533 1.99-17.223 .995-17.728-.149-18.232-1.293-18.481-2.502-18.481-3.781-18.481-5.061-18.246-6.262-17.784-7.385-17.315-8.508-16.669-9.475-15.837-10.292-15.005-11.103-14.018-11.757-12.873-12.24-11.729-12.724-10.478-12.965-9.119-12.965-7.727-12.965-6.44-12.716-5.26-12.211-4.073-11.707-3.042-11.039-2.146-10.2-1.258-9.368-.562-8.38-.057-7.236 .448-6.099 .696-4.883 .696-3.604 .696-2.324 .469-1.13 0 0M7.179-73.27C7.044-73.092 6.824-72.972 6.511-72.893 6.205-72.851 5.672-72.73 4.912-72.517 4.158-72.303 3.384-71.934 2.587-71.408 1.791-70.889 1.088-70.149 .469-69.204-.149-68.251-.462-67-.462-65.451V-21.396C-.462-20.848-.646-20.557-1.017-20.521-1.386-20.485-1.741-20.578-2.09-20.812-3.405-21.701-4.897-22.583-6.568-23.457-8.231-24.331-9.958-25.141-11.735-25.895-13.52-26.655-15.297-27.331-17.06-27.935-18.822-28.532-20.457-29.008-21.971-29.356-22.554-29.513-22.831-29.79-22.81-30.202-22.796-30.607-22.532-30.87-22.028-30.984-21.914-31.02-21.595-31.098-21.068-31.219-20.542-31.333-19.974-31.467-19.355-31.624-18.737-31.78-18.183-31.915-17.699-32.029-17.216-32.143-16.932-32.207-16.854-32.207-16.392-32.32-16.156-32.633-16.156-33.138V-65.451C-16.156-67-16.47-68.251-17.088-69.204-17.706-70.149-18.417-70.889-19.206-71.408-20.002-71.934-20.777-72.303-21.53-72.517-22.291-72.73-22.824-72.851-23.13-72.893-23.442-72.972-23.663-73.092-23.798-73.27-23.933-73.448-23.982-73.625-23.947-73.824-23.904-74.016-23.798-74.194-23.627-74.343-23.449-74.5-23.208-74.578-22.902-74.578H6.283C6.589-74.578 6.831-74.5 7.009-74.343 7.179-74.194 7.286-74.016 7.328-73.824 7.364-73.625 7.314-73.448 7.179-73.27" fill="#fff"/>
<path transform="matrix(1,0,0,-1,720.8715,503.98054)" d="M0 0C0-1.201-.136-2.587-.405-4.158-.676-5.729-1.237-7.208-2.09-8.608-2.943-10.001-4.166-11.181-5.751-12.148-7.343-13.122-9.454-13.605-12.084-13.605-14.139-13.605-15.865-13.171-17.259-12.297-18.659-11.423-19.796-10.314-20.692-8.956-21.58-7.599-22.256-6.07-22.725-4.364-23.187-2.659-23.528-.974-23.741 .697-23.954 2.36-24.068 3.924-24.09 5.374-24.111 6.831-24.118 7.982-24.118 8.835-24.118 12.048-23.884 15.041-23.421 17.812-22.959 20.585-22.22 22.987-21.211 25.021-20.209 27.053-18.887 28.652-17.259 29.818-15.631 30.977-13.676 31.56-11.388 31.56-9.881 31.56-8.544 31.297-7.379 30.778-6.22 30.252-5.211 29.562-4.357 28.709-3.505 27.856-2.794 26.89-2.232 25.802-1.671 24.722-1.23 23.584-.896 22.405-.569 21.225-.334 20.052-.199 18.886-.064 17.728 0 16.661 0 15.694ZM23.399-17.585C23.265-17.408 23.044-17.287 22.731-17.208 22.419-17.166 21.886-17.045 21.132-16.832 20.379-16.619 19.604-16.249 18.808-15.723 18.012-15.204 17.308-14.465 16.683-13.52 16.064-12.567 15.758-11.316 15.758-9.767V67.427C15.758 67.967 15.573 68.259 15.204 68.294 14.834 68.337 14.479 68.237 14.131 68.003 12.809 67.114 11.315 66.233 9.652 65.359 7.989 64.492 6.262 63.674 4.478 62.92 2.693 62.16 .924 61.485-.839 60.888-2.602 60.284-4.236 59.807-5.751 59.459-6.334 59.303-6.611 59.025-6.597 58.62-6.575 58.208-6.312 57.952-5.808 57.831-5.694 57.795-5.374 57.718-4.848 57.604-4.329 57.483-3.753 57.348-3.135 57.191-2.517 57.035-1.962 56.9-1.479 56.786-.995 56.673-.711 56.609-.633 56.609-.171 56.495 .063 56.182 .063 55.685V32.143C.063 31.944-.028 31.809-.199 31.737-.377 31.659-.562 31.695-.754 31.851-.832 31.887-1.159 32.072-1.742 32.406-2.324 32.732-3.191 33.081-4.357 33.451-5.517 33.82-6.995 34.147-8.771 34.438-10.556 34.73-12.667 34.872-15.112 34.872-19.49 34.872-23.294 34.197-26.535 32.839-29.769 31.481-32.463 29.541-34.609 27.025-36.764 24.509-38.37 21.474-39.436 17.927-40.502 14.387-41.035 10.442-41.035 6.099-41.035 4.357-40.907 2.495-40.658 .519-40.402-1.457-39.955-3.433-39.322-5.409-38.683-7.385-37.809-9.262-36.706-11.046-35.598-12.83-34.204-14.415-32.52-15.815-30.835-17.208-28.831-18.311-26.499-19.128-24.175-19.938-21.467-20.343-18.367-20.343-15.574-20.343-13.144-20.009-11.067-19.327-8.999-18.652-7.251-17.855-5.836-16.946-4.422-16.036-3.313-15.126-2.495-14.216-1.685-13.306-1.103-12.638-.754-12.212-.598-12.013-.427-11.956-.228-12.034-.036-12.112 .063-12.29 .063-12.56V-17.671C.063-18.097 .185-18.41 .44-18.602 .689-18.794 1.03-18.893 1.457-18.893H22.497C22.81-18.893 23.051-18.815 23.222-18.659 23.399-18.509 23.506-18.332 23.542-18.14 23.584-17.941 23.534-17.763 23.399-17.585" fill="#fff"/>
<path transform="matrix(1,0,0,-1,813.1762,517.8481)" d="M0 0C-.312 .334-.731 .44-1.279 .32-1.94 .206-2.559 .135-3.135 .121-3.717 .099-4.2 .185-4.592 .376-5.48 .768-6.027 1.784-6.22 3.433-6.411 5.075-6.461 7.172-6.361 9.709-6.269 12.247-6.099 15.161-5.871 18.459-5.637 21.75-5.522 25.276-5.522 29.036-5.522 32.178-5.956 34.972-6.83 37.438-7.697 39.897-9.098 41.958-11.01 43.629-12.93 45.292-15.41 46.558-18.452 47.432-21.494 48.306-25.169 48.74-29.47 48.74-33.344 48.74-36.542 48.441-39.059 47.837-41.574 47.24-43.586 46.451-45.072 45.484-46.564 44.518-47.603 43.43-48.186 42.229-48.769 41.028-49.06 39.826-49.06 38.625-49.06 37.736-48.91 36.891-48.619 36.102-48.327 35.306-47.894 34.609-47.311 34.005-46.728 33.408-46.031 32.932-45.221 32.583-44.403 32.235-43.479 32.057-42.428 32.057-41.426 32.057-40.366 32.242-39.265 32.612-38.781 32.775-38.333 32.967-37.929 33.209-37.409 33.5-36.954 33.855-36.557 34.268-36.009 34.872-35.555 35.547-35.199 36.301-35 36.713-34.836 37.146-34.701 37.608-34.311 38.91-33.898 40.16-33.45 41.362-33.002 42.563-32.391 43.586-31.616 44.439-30.842 45.292-29.626 45.719-27.956 45.719-27.024 45.719-26.164 45.463-25.368 44.965-24.579 44.461-23.876 43.778-23.278 42.925-22.675 42.072-22.213 41.077-21.886 39.933-21.665 39.172-21.516 38.391-21.444 37.587-21.409 37.182-21.388 36.77-21.388 36.357-21.388 35.91-21.409 35.469-21.444 35.036V6.717C-21.444 6.248-21.544 5.601-21.736 4.77-21.936 3.938-22.27 3.113-22.753 2.296-23.236 1.485-23.918 .789-24.785 .206-25.66-.377-26.797-.668-28.19-.668-29.583-.668-30.777-.405-31.766 .121-32.754 .64-33.564 1.322-34.204 2.153-34.844 2.985-35.319 3.938-35.633 5.004-35.938 6.063-36.095 7.122-36.095 8.167-36.095 9.716-35.853 11.181-35.369 12.56-34.886 13.932-34.14 15.204-33.13 16.363-32.47 17.102-31.766 17.777-31.005 18.396-30.252 19.021-29.491 19.639-28.716 20.258-27.941 20.955-27.167 21.644-26.385 22.319-25.965 22.689-25.553 23.073-25.141 23.485-25.041 23.57-24.949 23.663-24.856 23.755-23.378 25.233-22.468 27.281-22.468 29.534-22.468 29.96-22.504 30.38-22.561 30.792-23.144 29.612-24.032 28.617-25.226 27.813-26.584 26.882-28.026 26.214-29.555 25.809-31.083 25.404-32.647 25.063-34.232 24.793-35.135 24.644-36.03 24.487-36.94 24.345-37.637 24.231-38.333 24.118-39.03 24.011-40.637 23.755-42.179 23.343-43.65 22.76-46.401 21.637-48.641 19.931-50.367 17.642-52.088 15.353-52.947 12.681-52.947 9.624-52.947 7.726-52.635 5.814-51.995 3.895-51.355 1.976-50.304 .256-48.854-1.28-47.403-2.808-45.506-4.059-43.16-5.025-40.814-5.992-37.914-6.476-34.467-6.476-32.455-6.476-30.671-6.234-29.121-5.75-27.571-5.267-26.242-4.727-25.141-4.123-24.032-3.526-23.179-2.964-22.582-2.438-21.978-1.919-21.622-1.6-21.502-1.479-21.31-1.287-21.068-1.173-20.776-1.13-20.485-1.095-20.265-1.23-20.108-1.536-19.49-2.779-18.374-3.874-16.768-4.819-15.161-5.772-13.171-6.248-10.811-6.248-9.105-6.248-7.619-6.07-6.361-5.722-5.104-5.374-4.037-4.947-3.163-4.443-2.296-3.938-1.599-3.398-1.073-2.815-.554-2.232-.17-1.734 .058-1.308 .327-.761 .313-.327 0 0" fill="#fff"/>
<path transform="matrix(1,0,0,-1,551.2084,604.72317)" d="M0 0C-.042-1.201-.135-2.459-.291-3.782-.447-5.097-.711-6.404-1.073-7.705-1.442-8.999-1.969-10.172-2.645-11.217-3.326-12.269-4.18-13.107-5.203-13.747-6.233-14.387-7.499-14.707-9.013-14.707-10.598-14.707-11.885-14.38-12.873-13.719-13.86-13.058-14.649-12.141-15.232-10.961-15.809-9.773-16.206-8.331-16.42-6.625-16.633-4.926-16.739-3.021-16.739-.931V17.322C-16.739 18.403-16.391 19.27-15.694 19.91-14.998 20.549-14.045 20.869-12.844 20.869-12.269 20.869-11.536 20.833-10.669 20.777-9.795 20.72-8.885 20.528-7.933 20.201-6.987 19.867-6.034 19.348-5.089 18.63-4.137 17.912-3.276 16.896-2.502 15.574-1.728 14.259-1.108 12.581-.64 10.548-.178 8.516 .057 6.021 .057 3.078 .057 2.225 .035 1.201 0 0M-16.739 44.695C-16.739 46.792-16.661 48.619-16.512 50.19-16.355 51.761-16.043 53.076-15.581 54.142-15.111 55.208-14.443 56.004-13.576 56.523-12.702 57.049-11.564 57.312-10.172 57.312-8.466 57.312-7.129 56.865-6.162 55.976-5.196 55.081-4.456 53.929-3.952 52.514-3.447 51.1-3.142 49.522-3.021 47.78-2.907 46.032-2.851 44.311-2.851 42.606-2.851 38.689-3.198 35.526-3.895 33.102-4.592 30.678-5.466 28.802-6.511 27.465-7.556 26.129-8.693 25.227-9.908 24.757-11.131 24.295-12.247 24.061-13.257 24.061-14.379 24.061-15.239 24.38-15.837 25.021-16.44 25.66-16.739 26.52-16.739 27.607ZM20.578 8.978C20.109 10.975 19.277 12.837 18.076 14.557 16.875 16.285 15.247 17.834 13.192 19.206 11.139 20.585 8.522 21.68 5.346 22.497 5.111 22.568 4.976 22.675 4.94 22.817 4.904 22.952 4.997 23.073 5.231 23.193 7.478 24.238 9.368 25.461 10.896 26.854 12.425 28.248 13.647 29.761 14.558 31.389 15.468 33.017 16.121 34.716 16.505 36.5 16.896 38.284 17.088 40.068 17.088 41.852 17.088 44.404 16.732 46.821 16.015 49.088 15.297 51.356 14.096 53.332 12.411 55.017 10.727 56.701 8.516 58.03 5.786 58.997 3.05 59.963-.348 60.447-4.421 60.447H-44.873C-45.264 60.447-45.556 60.362-45.747 60.191-45.939 60.013-46.046 59.821-46.067 59.608-46.089 59.395-46.011 59.182-45.833 58.969-45.655 58.755-45.399 58.627-45.051 58.592-44.582 58.514-43.85 58.336-42.84 58.066-41.831 57.796-40.814 57.341-39.791 56.701-38.76 56.061-37.857 55.173-37.083 54.028-36.308 52.884-35.924 51.42-35.924 49.636V-7.208C-35.924-9.027-36.308-10.506-37.083-11.629-37.857-12.752-38.76-13.641-39.791-14.301-40.814-14.962-41.831-15.417-42.84-15.666-43.85-15.922-44.582-16.085-45.051-16.157-45.399-16.235-45.655-16.377-45.833-16.569-46.011-16.761-46.089-16.967-46.067-17.18-46.046-17.394-45.939-17.585-45.747-17.756-45.556-17.934-45.264-18.019-44.873-18.019H-6.567C-1.414-18.019 2.936-17.458 6.482-16.334 10.029-15.211 12.895-13.69 15.084-11.771 17.272-9.852 18.851-7.634 19.817-5.118 20.791-2.595 21.274 .057 21.274 2.85 21.274 4.94 21.04 6.98 20.578 8.978" fill="#fff"/>
<path transform="matrix(1,0,0,-1,624.4428,610.9995)" d="M0 0C0-.469-.092-1.116-.291-1.948-.483-2.787-.824-3.604-1.308-4.421-1.791-5.231-2.466-5.928-3.341-6.511-4.208-7.094-5.345-7.385-6.738-7.385-8.139-7.385-9.325-7.123-10.313-6.596-11.302-6.078-12.119-5.402-12.759-4.563-13.398-3.732-13.867-2.787-14.181-1.72-14.493-.654-14.643 .405-14.643 1.45-14.643 3-14.4 4.464-13.917 5.843-13.434 7.214-12.688 8.487-11.679 9.646-11.024 10.385-10.313 11.06-9.561 11.678-8.807 12.297-8.039 12.922-7.264 13.541-6.489 14.237-5.715 14.927-4.939 15.602-4.556 15.943-4.172 16.299-3.796 16.661-3.788 16.661-3.788 16.661-3.788 16.668-3.597 16.846-3.411 17.024-3.227 17.216-3.177 17.266-3.135 17.308-3.092 17.358-1.798 18.801-1.017 20.713-1.017 22.803-1.017 23.229-1.052 23.656-1.115 24.068-1.698 22.888-2.587 21.9-3.774 21.097-5.132 20.166-6.575 19.497-8.103 19.092-9.639 18.687-11.195 18.346-12.787 18.076-13.689 17.919-14.593 17.77-15.502 17.628-16.191 17.514-16.882 17.4-17.578 17.294-19.191 17.038-20.727 16.619-22.198 16.043-24.956 14.913-27.188 13.214-28.915 10.925-30.643 8.636-31.503 5.963-31.503 2.907-31.503 1.002-31.183-.903-30.543-2.822-29.903-4.741-28.858-6.461-27.401-7.997-25.951-9.525-24.054-10.776-21.708-11.743-19.362-12.709-16.469-13.2-13.015-13.2-11.003-13.2-9.219-12.951-7.669-12.468-6.12-11.984-4.79-11.444-3.688-10.84-2.587-10.243-1.734-9.681-1.13-9.155-.533-8.636-.17-8.316-.057-8.196 .136-8.004 .384-7.89 .669-7.848 .96-7.812 1.187-7.947 1.337-8.26 1.962-9.497 3.071-10.591 4.685-11.543 6.291-12.489 8.274-12.965 10.641-12.965 12.347-12.965 13.825-12.788 15.084-12.439 16.342-12.091 17.408-11.665 18.282-11.16 19.156-10.662 19.854-10.115 20.372-9.532 20.898-8.956 21.274-8.452 21.51-8.025 21.779-7.485 21.758-7.044 21.452-6.717 21.14-6.39 20.713-6.276 20.173-6.397 19.512-6.511 18.894-6.582 18.311-6.596 17.728-6.618 17.244-6.532 16.86-6.34 15.965-5.95 15.425-4.933 15.232-3.284 15.041-1.642 14.991 .455 15.084 2.992 15.183 5.53 15.347 8.444 15.581 11.742 15.815 15.034 15.93 18.559 15.93 22.319 15.93 25.454 15.496 28.254 14.621 30.714 13.747 33.18 12.354 35.242 10.435 36.905 8.516 38.575 6.035 39.841 2.993 40.715-.05 41.589-3.718 42.023-8.018 42.023-11.892 42.023-15.09 41.724-17.606 41.12-20.13 40.523-22.135 39.734-23.627 38.767-25.12 37.801-26.157 36.713-26.733 35.512-27.316 34.311-27.607 33.109-27.607 31.908-27.607 31.02-27.458 30.174-27.174 29.377-26.883 28.588-26.441 27.885-25.866 27.288-25.283 26.684-24.587 26.214-23.77 25.866-22.959 25.518-22.027 25.34-20.982 25.34-19.974 25.34-18.914 25.525-17.812 25.895-17.329 26.058-16.882 26.257-16.477 26.492H-16.469C-15.95 26.783-15.502 27.139-15.111 27.551-14.564 28.148-14.109 28.823-13.754 29.577-13.747 29.577-13.747 29.583-13.747 29.583-13.555 29.996-13.392 30.43-13.249 30.892-12.865 32.192-12.446 33.436-11.998 34.638-11.558 35.839-10.946 36.87-10.171 37.722-9.396 38.575-8.174 39.002-6.511 39.002-5.579 39.002-4.712 38.746-3.923 38.241-3.127 37.744-2.431 37.062-1.826 36.208-1.229 35.355-.761 34.36-.434 33.216-.213 32.456-.071 31.673 0 30.87 .036 30.465 .057 30.053 .057 29.641" fill="#fff"/>
<path transform="matrix(1,0,0,-1,685.9985,577.86917)" d="M0 0V8.31C0 8.85-.185 9.141-.547 9.184-.916 9.219-1.279 9.127-1.627 8.893-2.942 8.004-4.435 7.123-6.099 6.248-7.769 5.374-9.496 4.563-11.272 3.803-13.057 3.05-14.827 2.375-16.59 1.77-18.359 1.173-19.994 .697-21.501 .349-22.084 .192-22.368-.085-22.348-.498-22.326-.902-22.07-1.166-21.565-1.279-21.444-1.322-21.125-1.393-20.605-1.514-20.08-1.627-19.511-1.763-18.886-1.919-18.268-2.075-17.72-2.21-17.229-2.324-16.746-2.445-16.469-2.502-16.391-2.502-15.922-2.616-15.694-2.928-15.694-3.433V-36.215C-15.694-37.765-15.95-38.988-16.476-39.876-17.002-40.765-17.599-41.447-18.281-41.909-18.957-42.378-19.625-42.698-20.286-42.869-20.939-43.046-21.431-43.153-21.736-43.188-22.049-43.267-22.27-43.395-22.404-43.565-22.539-43.743-22.589-43.928-22.554-44.12-22.511-44.312-22.404-44.489-22.233-44.639-22.056-44.795-21.814-44.873-21.501-44.873H5.815C6.128-44.873 6.369-44.795 6.54-44.639 6.718-44.489 6.824-44.312 6.859-44.12 6.902-43.928 6.853-43.743 6.718-43.565 6.583-43.395 6.355-43.267 6.05-43.188 5.736-43.153 5.254-43.046 4.592-42.869 3.932-42.698 3.263-42.378 2.588-41.909 1.912-41.447 1.309-40.765 .79-39.876 .264-38.988 0-37.765 0-36.215V-16.1ZM21.744 4.272C21.432 5.182 20.927 5.978 20.23 6.653 19.533 7.329 18.624 7.876 17.501 8.281 16.37 8.687 14.999 8.893 13.371 8.893 10.833 8.893 8.523 8.324 6.434 7.201 6.22 7.101 6.007 6.987 5.808 6.859 3.96 5.708 2.737 3.654 2.737 1.322V-1.699C2.887-1.464 3.035-1.258 3.192-1.066 3.555-.611 3.932-.263 4.329-.028 5.09 .413 5.794 .64 6.455 .64 7.187 .64 7.812 .37 8.316-.178 8.814-.718 9.369-1.308 9.973-1.947 10.57-2.587 11.295-3.177 12.148-3.725 12.376-3.867 12.617-3.987 12.895-4.094 13.647-4.385 14.586-4.535 15.695-4.535 17.671-4.535 19.249-4.009 20.437-2.964 21.616-1.919 22.206-.469 22.206 1.394 22.206 2.403 22.05 3.362 21.744 4.272" fill="#fff"/>
<path transform="matrix(1,0,0,-1,751.6567,621.4341)" d="M0 0C-.143 .17-.363 .298-.669 .376-.981 .412-1.465 .519-2.126 .696-2.787 .867-3.455 1.187-4.13 1.656-4.812 2.118-5.41 2.8-5.936 3.689-6.454 4.577-6.718 5.8-6.718 7.35V27.465C-6.718 27.899-6.718 28.318-6.71 28.73V43.58C-6.71 43.572-6.718 43.572-6.718 43.565V51.875C-6.718 52.415-6.902 52.706-7.271 52.749-7.642 52.784-7.997 52.692-8.346 52.458-9.66 51.569-11.153 50.688-12.823 49.813-14.486 48.939-16.214 48.128-17.991 47.368-19.775 46.615-21.552 45.939-23.314 45.335-25.078 44.738-26.713 44.262-28.227 43.914-28.803 43.757-29.087 43.48-29.065 43.067-29.051 42.663-28.788 42.399-28.283 42.286-28.163 42.243-27.85 42.172-27.324 42.051-26.798 41.938-26.229 41.802-25.61 41.646-24.985 41.49-24.438 41.354-23.955 41.241-23.472 41.12-23.187 41.063-23.108 41.063-22.646 40.949-22.412 40.637-22.412 40.132V7.35C-22.412 5.8-22.675 4.577-23.194 3.689-23.72 2.8-24.317 2.118-25 1.656-25.675 1.187-26.343 .867-27.004 .696-27.665 .519-28.148 .412-28.454 .376-28.767 .298-28.987 .17-29.122 0-29.265-.178-29.307-.363-29.271-.555-29.229-.747-29.122-.924-28.951-1.074-28.773-1.23-28.532-1.308-28.227-1.308H-.903C-.598-1.308-.355-1.23-.178-1.074 0-.924 .106-.747 .142-.555 .178-.363 .135-.178 0 0M15.019 47.837C14.713 48.747 14.209 49.543 13.512 50.218 12.815 50.894 11.898 51.441 10.775 51.846 9.652 52.251 8.28 52.458 6.652 52.458 4.222 52.458 1.989 51.938-.029 50.901-.121 50.858-.221 50.815-.313 50.766-.569 50.624-.818 50.481-1.066 50.325-1.109 50.304-1.145 50.275-1.187 50.247H-1.194C-1.237 50.218-1.28 50.19-1.322 50.162-1.344 50.147-1.365 50.133-1.394 50.112-2.986 48.925-4.017 47.027-4.017 44.887V41.81C-3.867 42.051-3.711 42.271-3.555 42.471-3.178 42.939-2.794 43.295-2.389 43.537-1.628 43.978-.925 44.205-.264 44.205 .469 44.205 1.087 43.935 1.592 43.387 2.097 42.847 2.651 42.257 3.248 41.618 3.853 40.978 4.577 40.388 5.43 39.84 5.65 39.698 5.893 39.578 6.162 39.478 6.916 39.18 7.854 39.03 8.977 39.03 10.953 39.03 12.531 39.556 13.711 40.601 14.898 41.646 15.488 43.096 15.488 44.958 15.488 45.968 15.332 46.927 15.019 47.837" fill="#fff"/>
<path transform="matrix(1,0,0,-1,819.1049,606.1162)" d="M0 0C-.462-2.986-1.151-5.594-2.062-7.819-2.972-10.051-4.116-11.8-5.487-13.079-6.866-14.358-8.487-14.998-10.343-14.998-12.205-14.998-13.825-14.358-15.197-13.079-16.576-11.8-17.728-10.051-18.659-7.819-19.583-5.594-20.272-2.986-20.72 0-21.168 2.978-21.389 6.155-21.389 9.532-21.389 12.901-21.168 16.078-20.72 19.063-20.272 22.049-19.583 24.65-18.659 26.882-17.728 29.107-16.576 30.863-15.197 32.143-13.825 33.422-12.205 34.062-10.343 34.062-8.487 34.062-6.866 33.422-5.487 32.143-4.116 30.863-2.972 29.107-2.062 26.882-1.151 24.65-.462 22.049 0 19.063 .469 16.078 .696 12.901 .696 9.532 .696 6.155 .469 2.978 0 0M15.523 20.514C14.166 23.847 12.282 26.74 9.88 29.207 7.478 31.666 4.605 33.6 1.251 35.021-2.097 36.429-5.771 37.14-9.767 37.14-13.754 37.14-17.486 36.4-20.955 34.929-24.424 33.458-27.431 31.453-29.989 28.916-32.548 26.378-34.566 23.414-36.038 20.023-37.51 16.633-38.241 13.036-38.241 9.24-38.241 5.402-37.566 1.827-36.209-1.486-34.852-4.798-32.975-7.684-30.572-10.144-28.169-12.61-25.291-14.543-21.942-15.958-18.588-17.373-14.92-18.083-10.925-18.083-6.937-18.083-3.206-17.344 .263-15.873 3.731-14.401 6.745-12.396 9.305-9.852 11.856-7.321 13.875-4.365 15.346-.988 16.817 2.381 17.557 5.985 17.557 9.823 17.557 13.619 16.874 17.18 15.523 20.514" fill="#fff"/>
<path transform="matrix(1,0,0,-1,893.1567,595.8877)" d="M0 0C-2.907 2.985-7.187 5.345-12.845 7.086-15.673 7.939-17.927 8.785-19.618 9.617-21.303 10.449-22.59 11.273-23.478 12.091-24.374 12.901-24.956 13.747-25.227 14.614-25.497 15.488-25.632 16.391-25.632 17.322-25.632 19.142-25.07 20.691-23.947 21.971-22.824 23.25-21.062 23.89-18.659 23.89-16.37 23.89-14.209 23.414-12.176 22.461-10.144 21.516-8.288 20.4-6.625 19.121-4.962 17.841-3.547 16.547-2.381 15.225-1.216 13.91-.37 12.865 .178 12.091 .448 11.7 .761 11.593 1.108 11.771 1.457 11.941 1.592 12.226 1.514 12.609 1.514 12.73 1.415 13.271 1.223 14.237 1.03 15.211 .832 16.277 .64 17.436 .448 18.602 .256 19.675 .057 20.663-.135 21.651-.228 22.184-.228 22.262-.271 22.454-.306 22.589-.349 22.667-.384 22.746-.519 22.845-.754 22.959-.867 22.995-1.386 23.229-2.296 23.655-3.206 24.082-4.429 24.537-5.957 25.02-7.484 25.503-9.276 25.944-11.33 26.328-13.385 26.719-15.616 26.911-18.019 26.911-21.814 26.911-24.936 26.378-27.373 25.312-29.818 24.246-31.745 22.931-33.159 21.359-34.573 19.789-35.555 18.104-36.095 16.306-36.635 14.5-36.905 12.844-36.905 11.33-36.905 9.354-36.663 7.485-36.18 5.722-35.697 3.959-34.915 2.31-33.827 .782-32.74-.747-31.325-2.133-29.584-3.37-27.843-4.613-25.688-5.68-23.13-6.568-20.344-7.577-18.111-8.573-16.448-9.561-14.785-10.549-13.506-11.551-12.609-12.553-11.722-13.563-11.139-14.572-10.868-15.581-10.599-16.59-10.463-17.614-10.463-18.659-10.463-20.635-11.089-22.227-12.347-23.428-13.612-24.63-15.347-25.227-17.55-25.227-19.455-25.227-21.231-24.907-22.902-24.267-24.565-23.627-26.108-22.817-27.522-21.829-28.937-20.841-30.217-19.768-31.36-18.602-32.498-17.436-33.479-16.356-34.289-15.347-35.106-14.337-35.747-13.484-36.209-12.788-36.678-12.091-36.927-11.686-36.969-11.565-37.161-11.259-37.452-11.153-37.836-11.252-38.228-11.345-38.384-11.665-38.306-12.205-38.263-12.482-38.156-13.165-37.985-14.273-37.808-15.375-37.623-16.548-37.432-17.785-37.239-19.028-37.055-20.159-36.877-21.189-36.706-22.213-36.621-22.767-36.621-22.846-36.578-23.038-36.528-23.215-36.472-23.372-36.415-23.521-36.344-23.642-36.266-23.72-36.116-23.833-35.569-24.132-34.645-24.615-33.714-25.106-32.427-25.618-30.778-26.158-29.129-26.698-27.117-27.196-24.729-27.644-22.348-28.084-19.625-28.312-16.562-28.312-12.923-28.312-9.78-27.885-7.15-27.032-4.514-26.179-2.346-25.006-.64-23.514 1.066-22.021 2.324-20.258 3.142-18.225 3.952-16.192 4.364-13.975 4.364-11.565 4.364-6.838 2.907-2.985 0 0" fill="#fff"/>
</g>
</g>
</svg>
